# xmcd
#
# Track frame offsets:
# 150
# 21995
# 39434
# 52703
#
# Disc length: 1212 seconds
#
#
# Revision: 0
# Processed by: cddbd v1.5.2PL0 Copyright (c) Steve Scherf et al.
# Submitted via: FreeRIP 2.945 
#
DISCID=2504ba04
DTITLE=The Monday Lovers - Live In My Livingroom
DYEAR=2007
DGENRE=Blues
TTITLE0=Room With A View
TTITLE1=Keep On Lovin' Me Baby
TTITLE2=Love Me Like A Man
TTITLE3=Red House
EXTD=
EXTT0=
EXTT1=
EXTT2=
EXTT3=
PLAYORDER=
